PathFileType	4	(X/Y/Z)	/Users/rkoike/Documents/python/sports2d/webcam_20251024_144952/webcam_20251024_144952_px_person01.trc
DataRate	CameraRate	NumFrames	NumMarkers	Units	OrigDataRate	OrigDataStartFrame	OrigNumFrames
30	30	13	22	m	30	240	962
Frame#	Time	Hip			RHip			RKnee			RAnkle			RBigToe			RSmallToe			RHeel			LHip			LKnee			LAnkle			LBigToe			LSmallToe			LHeel			Neck			Head			Nose			RShoulder			RElbow			RWrist			LShoulder			LElbow			LWrist			
		X1	Y1	Z1	X2	Y2	Z2	X3	Y3	Z3	X4	Y4	Z4	X5	Y5	Z5	X6	Y6	Z6	X7	Y7	Z7	X8	Y8	Z8	X9	Y9	Z9	X10	Y10	Z10	X11	Y11	Z11	X12	Y12	Z12	X13	Y13	Z13	X14	Y14	Z14	X15	Y15	Z15	X16	Y16	Z16	X17	Y17	Z17	X18	Y18	Z18	X19	Y19	Z19	X20	Y20	Z20	X21	Y21	Z21	X22	Y22	Z22
240	8.008324661810615	553.8363583348583	706.2358339826721	0.0	466.5483617341128	704.530567674568	0.0	435.2144821024266	730.8980368992798	0.0	899.7751829274933	576.539265808339	0.0			0.0			0.0			0.0	656.2440308913176	698.522153488218	0.0	459.5411406728205	714.6802645145199	0.0	944.4307863423603	589.2980096411582	0.0			0.0	829.3565238830115	333.9305550307034	0.0			0.0	568.3869149401395	375.2532295427548	0.0	561.0622795496016	181.08207473761965	0.0	543.6589730261701	217.85527803152976	0.0	443.7135374855884	401.7051375522292	0.0	329.4161840267935	178.15828424572652	0.0	505.1459614665511	281.0567244252206	0.0	692.0281827888786	397.3173478011606	0.0	795.0764872145107	169.63824073756334	0.0	649.7091590609558	264.42837356507096	0.0
241	8.041692681234826	549.5146787283439	707.8220572233555	0.0	550.0117295838595	704.9365102271606	0.0	435.21448210218637	730.8980368992085	0.0	899.7751829274933	576.539265808339	0.0			0.0			0.0			0.0	570.5422877137876	698.9041907223184	0.0	459.5411406896826	714.6802645149738	0.0	944.4307863423603	589.2980096411582	0.0			0.0	829.3565238830115	333.9305550307034	0.0			0.0	565.0778516132788	382.3776542591182	0.0	559.1838160205325	192.22371434754191	0.0	545.1990068218147	234.63629920747414	0.0	575.1473237919929	400.750579150731	0.0	579.8850792677135	177.05496274542526	0.0	577.146375429795	278.24278403791754	0.0	558.8931255087645	399.36674318581674	0.0	560.7692937693699	176.57054030289058	0.0	581.117525285	271.2503149339281	0.0
242	8.075060700659037	553.1139251902064	710.1862011692481	0.0	638.4110960045809	703.6421002747205	0.0	435.2144821020723	730.8980368991051	0.0	899.7751829274933	576.539265808339	0.0			0.0			0.0			0.0	483.20909384700883	699.1467997008815	0.0	459.5411407161634	714.6802645155443	0.0	944.4307863423603	589.2980096411582	0.0			0.0	829.3565238830115	333.9305550307034	0.0			0.0	563.7326336311764	392.1702490091183	0.0	558.8984060856503	204.37889045631928	0.0	551.833377493132	256.073258345904	0.0	703.3802552634248	399.8503257510275	0.0	818.0024803427284	176.30554734215409	0.0	654.0754322318787	271.1805858186966	0.0	428.35838971677026	401.1893090820484	0.0	333.17330414206674	184.74354860791072	0.0	509.80447249710505	275.8420948218658	0.0
243	8.108428720083248	561.2279564337358	709.0198947856136	0.0	684.9869604153955	701.1809447919059	0.0	435.214482102077	730.8980368990808	0.0	899.7751829274933	576.539265808339	0.0			0.0			0.0			0.0	436.07866991457894	699.2242174554034	0.0	459.54114069020414	714.6802645135865	0.0	944.4307863423603	589.2980096411582	0.0			0.0	829.3565238830115	333.9305550307034	0.0			0.0	565.0381254469714	397.7738433990334	0.0	560.6376547354973	218.14640154229753	0.0	555.2350260495607	266.1529574118782	0.0	767.4709503960855	402.231458089582	0.0	927.4471793887498	178.633703478577	0.0	694.5348481930293	269.50939776220326	0.0	364.73224729215326	407.6662802480421	0.0	225.25004941297513	194.64577435542552	0.0	466.70881764541843	280.749079248969	0.0
244	8.141796739507459	569.8482949717343	705.4113784965543	0.0	691.240511995328	699.4083651661429	0.0	435.2144821021008	730.8980368990922	0.0	899.7751829274933	576.539265808339	0.0			0.0			0.0			0.0	426.483169490782	700.1752887504479	0.0	459.5411405121836	714.6802645068377	0.0	944.4307863423603	589.2980096411582	0.0			0.0	829.3565238830115	333.9305550307034	0.0			0.0	567.7961127314849	399.30319474336653	0.0	563.572071354989	231.41290294209304	0.0	553.2198740524981	266.1253421636776	0.0	773.0769620164239	407.23945454870113	0.0	926.4373705822464	183.9924244046919	0.0	700.3233304764759	273.5088601259739	0.0	361.53604882398	416.9501878988624	0.0	224.7797989547095	204.98861990365918	0.0	452.9035289593969	285.2957549550856	0.0
245	8.175164758931668	574.7134076206171	702.7538501467506	0.0	683.6220031800093	699.4603528847058	0.0	435.214482102109	730.8980368991012	0.0	899.7751829274933	576.539265808339	0.0			0.0			0.0			0.0	428.0768171636045	702.1800034505511	0.0	459.54114030910495	714.6802645041888	0.0	944.4307863423603	589.2980096411582	0.0			0.0	829.3565238830115	333.9305550307034	0.0			0.0	569.586676607115	401.1772258675639	0.0	565.9114211867275	239.09256279700696	0.0	547.6873601001372	264.1253938604108	0.0	760.8756943099198	412.86061097840286	0.0	898.4573511081824	191.55715486768486	0.0	694.3315671077752	281.2634624419604	0.0	375.03737068966495	424.0101049813895	0.0	254.19404728272798	213.2772445557506	0.0	456.3670030350548	289.6647376393931	0.0
246	8.20853277835588	574.3056697963805	702.858267241782	0.0	676.6493340040997	700.5996277337586	0.0	435.21448210210923	730.898036899102	0.0	899.7751829274933	576.539265808339	0.0			0.0			0.0			0.0	427.23900360475426	704.2946259848429	0.0	459.5411408338907	714.680264533715	0.0	944.4307863423603	589.2980096411582	0.0			0.0	829.3565238830115	333.9305550307034	0.0			0.0	569.5840685316512	405.3033007244135	0.0	567.8317756279105	238.61710905941388	0.0	541.5488586689467	263.5136799646344	0.0	753.5759374275128	418.3599045437822	0.0	887.4441775607042	200.2480378116415	0.0	689.1155396289834	292.4981523284513	0.0	382.55696793152293	427.39695709549625	0.0	271.03653590455366	218.39584166542636	0.0	468.73582191162967	296.2088825654026	0.0
247	8.24190079778009	570.3961507804645	703.857350949852	0.0	671.8958162769768	699.9540403628517	0.0	435.21448210211	730.8980368991002	0.0	899.7751829274933	576.539265808339	0.0			0.0			0.0			0.0	425.33483805974043	704.3195033108376	0.0	459.5411428608478	714.6802646029671	0.0	944.4307863423603	589.2980096411582	0.0			0.0	829.3565238830115	333.9305550307034	0.0			0.0	569.0302810381846	409.23775080778074	0.0	571.2510583102481	234.9704249697716	0.0	538.7497810976034	263.35233051340646	0.0	752.7652834050966	423.0007530530419	0.0	892.3298010506965	206.82030646206374	0.0	687.551632171051	303.8129470689601	0.0	385.01321574486656	429.63828233327393	0.0	274.6010558283621	222.0313475555012	0.0	481.14962817934656	305.115036402635	0.0
248	8.275268817204301	563.5812707902214	701.8702573829266	0.0	668.7947271062874	695.6208508246527	0.0	435.2144821021051	730.8980368990999	0.0	899.7751829274933	576.539265808339	0.0			0.0			0.0			0.0	426.1645849663224	700.4058616896956	0.0	459.5411440060006	714.6802645828584	0.0	944.4307863423603	589.2980096411582	0.0			0.0	829.3565238830115	333.9305550307034	0.0			0.0	569.0843679593482	410.05243406177823	0.0	575.8187728524283	236.82003237821527	0.0	540.5515074141584	264.5015573825464	0.0	753.9430196780373	425.1958594675135	0.0	902.5629087981584	207.486325407725	0.0	692.2216460089679	306.9771749377771	0.0	386.40681390496576	431.55779302822094	0.0	274.84499438975564	226.49356715591367	0.0	487.0177289173845	310.2188512031512	0.0
249	8.308636836628512	553.963191999474	697.1299357132336	0.0	667.4930724898094	689.485604614001	0.0	435.2144821020811	730.8980368991024	0.0	899.7751829274933	576.539265808339	0.0			0.0			0.0			0.0	430.16830249552015	693.4919882474081	0.0	459.5411358157962	714.6802641912474	0.0	944.4307863423603	589.2980096411582	0.0			0.0	829.3565238830115	333.9305550307034	0.0			0.0	570.1599903794096	408.33909682253034	0.0	578.8420449735243	245.4593743577849	0.0	542.0105706520085	268.3144803937457	0.0	754.3190231268667	426.16721924139887	0.0	912.3553588643066	203.44920925549354	0.0	702.8724049870483	300.5922515969797	0.0	388.25769903943615	432.31813203396575	0.0	277.24163500968166	231.75717695792804	0.0	489.01970715876195	308.71353990371966	0.0
250	8.342004856052723	547.6540591477827	695.4078371803655	0.0	667.5265526742152	685.0286758172075	0.0	435.2144821020585	730.8980368991051	0.0	899.7751829274933	576.539265808339	0.0			0.0			0.0			0.0	435.4853626862578	687.2670953750538	0.0	459.54111451182945	714.6802635549224	0.0	944.4307863423603	589.2980096411582	0.0			0.0	829.3565238830115	333.9305550307034	0.0			0.0	572.4777297122669	406.8804990259719	0.0	580.2471084790657	251.05012517066655	0.0	538.1830111985604	270.0587314307187	0.0	755.314393335269	429.0921396458568	0.0	918.7408605182131	200.83617195823766	0.0	711.6231142094706	296.25335730460876	0.0	392.2699379702538	433.54113253592027	0.0	281.41035400489653	235.6297002141804	0.0	491.7560329253072	308.6715061678656	0.0
251	8.375372875476934	551.6622149196251	698.22693259843	0.0	667.7446103015812	683.5821660040355	0.0	435.2144821021394	730.8980368990977	0.0	899.7751829274933	576.539265808339	0.0			0.0			0.0			0.0	440.2456360900174	684.8331555710512	0.0	459.541116134802	714.6802643539991	0.0	944.4307863423603	589.2980096411582	0.0			0.0	829.3565238830115	333.9305550307034	0.0			0.0	575.434226660166	406.5358114721513	0.0	582.6978311697902	246.87516572192993	0.0	533.1301006391611	264.2938124130522	0.0	758.6199472779819	432.4093540342162	0.0	920.8681427970819	203.05705983643895	0.0	711.1886814205395	301.66974005217514	0.0	397.5034628038621	436.03697316634486	0.0	285.9034520254722	236.1249384414117	0.0	494.83371960365776	314.45657004952494	0.0
252	8.408740894901145	560.6627732741076	699.0350941055817	0.0	668.5555999082607	684.2376534109611	0.0	435.2144821024081	730.8980368990701	0.0	899.7751829274933	576.539265808339	0.0			0.0			0.0			0.0	442.9724926616208	686.0622226840537	0.0	459.5412279935359	714.6802691115627	0.0	944.4307863423603	589.2980096411582	0.0			0.0	829.3565238830115	333.9305550307034	0.0			0.0	577.7455675078044	406.113912894774	0.0	586.971046419913	241.93274048588256	0.0	536.36272304707	256.31046016960363	0.0	761.8508014846598	432.0755904705742	0.0	920.9560076851361	206.44173605643948	0.0	705.6059024946823	308.9252977384301	0.0	399.3315578966984	436.75612832999246	0.0	290.33650051649516	234.01178287812687	0.0	497.1506088244559	318.0746772136572	0.0
